<?xml version="1.0" standalone="no"?>
<!DOCTYPE svg PUBLIC "-//W3C//DTD SVG 20010904//EN"
 "http://www.w3.org/TR/2001/REC-SVG-20010904/DTD/svg10.dtd">
<svg version="1.0" xmlns="http://www.w3.org/2000/svg"
 width="280.000000pt" height="280.000000pt" viewBox="0 0 280.000000 280.000000"
 preserveAspectRatio="xMidYMid meet">

<g transform="translate(0.000000,280.000000) scale(0.100000,-0.100000)"
fill="#000000" stroke="none">
<path d="M523 2685 c-204 -44 -365 -207 -408 -412 -22 -102 -22 -1646 0 -1748
42 -200 200 -363 396 -410 96 -22 1682 -22 1778 0 197 47 364 219 401 414 6
34 10 361 10 875 0 697 -3 831 -15 885 -47 196 -210 354 -410 396 -99 21
-1656 21 -1752 0z m1736 -116 c122 -28 247 -133 293 -246 l23 -58 0 -870 0
-870 -34 -70 c-44 -88 -108 -152 -196 -196 l-70 -34 -870 0 -870 0 -58 23
c-116 47 -220 174 -247 299 -7 31 -10 335 -8 883 l3 835 32 67 c55 116 166
210 279 237 55 13 1667 13 1723 0z"/>
<path d="M2112 2447 c-51 -29 -62 -63 -62 -191 0 -101 3 -123 20 -151 30 -49
61 -57 205 -53 l127 3 29 33 c29 32 29 32 29 167 0 135 0 135 -29 167 l-29 33
-134 3 c-96 1 -139 -2 -156 -11z m238 -192 l0 -85 -90 0 -90 0 0 85 0 85 90 0
90 0 0 -85z"/>
<path d="M1304 2160 c-142 -20 -270 -76 -386 -168 l-78 -62 -233 0 c-215 0
-235 -1 -251 -19 -15 -17 -16 -71 -14 -667 l3 -649 30 -58 c37 -75 118 -149
190 -176 55 -21 71 -21 835 -21 774 0 780 0 837 22 80 29 172 121 201 201 22
57 22 66 22 696 0 605 -1 639 -18 654 -16 15 -49 17 -251 17 l-232 0 -66 55
c-165 136 -390 203 -589 175z m224 -126 c193 -39 366 -171 451 -344 148 -301
54 -650 -225 -835 -133 -88 -325 -125 -484 -91 -190 40 -367 177 -448 346
-125 260 -78 545 122 746 158 157 369 222 584 178z m-780 -231 c-87 -170 -111
-258 -111 -408 2 -324 198 -604 500 -715 481 -174 986 151 1029 663 12 132
-28 313 -93 425 l-25 42 151 0 152 0 -3 -588 -3 -588 -26 -49 c-32 -64 -93
-110 -162 -125 -37 -7 -277 -10 -788 -8 l-734 3 -55 31 c-38 22 -64 46 -85 79
l-30 48 -3 599 -2 598 146 0 c80 0 144 -3 142 -7z"/>
<path d="M1319 1920 c-267 -41 -463 -285 -446 -555 25 -386 437 -614 781 -432
78 41 172 135 213 213 181 341 -42 745 -427 777 -36 3 -90 1 -121 -3z m252
-147 c112 -52 187 -136 224 -252 26 -78 17 -216 -18 -294 -36 -80 -115 -160
-196 -199 -85 -41 -217 -51 -302 -23 -116 37 -199 111 -253 224 -29 61 -31 74
-31 171 0 98 2 110 32 170 42 85 88 137 158 179 78 48 135 61 235 58 71 -2 97
-8 151 -34z"/>
</g>
</svg>
