<?xml version="1.0" standalone="no"?>
<!DOCTYPE svg PUBLIC "-//W3C//DTD SVG 20010904//EN"
 "http://www.w3.org/TR/2001/REC-SVG-20010904/DTD/svg10.dtd">
<svg version="1.0" xmlns="http://www.w3.org/2000/svg"
 width="487.000000pt" height="280.000000pt" viewBox="0 0 487.000000 280.000000"
 preserveAspectRatio="xMidYMid meet">

<g transform="translate(0.000000,280.000000) scale(0.100000,-0.100000)"
fill="#000000" stroke="none">
<path d="M1972 2690 c-153 -11 -240 -38 -297 -94 -56 -53 -57 -71 -7 -81 54
-10 123 -42 155 -73 55 -53 79 -205 80 -512 1 -345 -36 -488 -128 -506 -93
-17 -218 121 -432 479 -90 150 -197 363 -258 512 -45 109 -62 129 -134 155
-52 20 -71 21 -410 18 -320 -3 -359 -5 -389 -21 -64 -35 -62 -72 13 -237 170
-377 431 -851 640 -1165 334 -500 618 -772 967 -926 212 -93 351 -119 637
-119 206 0 218 1 267 24 66 31 79 60 93 207 17 177 50 269 116 327 57 51 116
42 209 -31 21 -17 105 -106 187 -197 200 -226 281 -291 407 -330 60 -19 79
-19 420 -10 196 5 371 14 388 18 87 26 134 76 134 144 0 49 -53 150 -143 268
-42 56 -176 198 -328 350 -218 217 -259 261 -270 298 -26 89 0 137 271 497
449 597 554 842 382 893 -28 8 -170 12 -475 12 l-436 0 -33 -34 c-21 -21 -47
-69 -71 -132 -118 -301 -342 -690 -491 -851 -112 -120 -173 -143 -219 -80 -57
76 -63 151 -47 604 13 378 9 432 -33 494 -51 76 -148 99 -442 104 -115 2 -261
0 -323 -5z"/>
</g>
</svg>
