<?xml version="1.0" standalone="no"?>
<!DOCTYPE svg PUBLIC "-//W3C//DTD SVG 20010904//EN"
 "http://www.w3.org/TR/2001/REC-SVG-20010904/DTD/svg10.dtd">
<svg version="1.0" xmlns="http://www.w3.org/2000/svg"
 width="300.000000pt" height="211.000000pt" viewBox="0 0 300.000000 211.000000"
 preserveAspectRatio="xMidYMid meet">

<g transform="translate(0.000000,211.000000) scale(0.100000,-0.100000)"
fill="#000000" stroke="none">
<path d="M960 2104 c-400 -14 -616 -40 -706 -84 -190 -93 -238 -258 -251 -850
-9 -445 21 -773 81 -906 15 -33 48 -80 73 -106 129 -131 319 -153 1343 -153
1043 0 1225 22 1354 166 107 119 140 330 140 884 0 571 -33 772 -149 891 -93
94 -183 120 -510 144 -142 11 -1171 21 -1375 14z m632 -836 l377 -214 -383
-217 c-210 -119 -385 -217 -389 -217 -4 0 -7 196 -7 436 0 347 3 435 13 431 7
-2 182 -101 389 -219z"/>
</g>
</svg>
